<mxfile host="app.diagrams.net" modified="2022-04-08T03:29:52.302Z" agent="5.0 (Windows NT 10.0; Win64; x64) AppleWebKit/537.36 (KHTML, like Gecko) Chrome/100.0.4896.75 Safari/537.36" etag="SFqmQVlqaqP1xDUYg6F8" version="17.4.0" type="github">
  <diagram id="CFCI64DsFvEYkzeo85w2" name="Page-1">
    <mxGraphModel dx="6278" dy="4178" grid="1" gridSize="10" guides="1" tooltips="1" connect="1" arrows="1" fold="1" page="1" pageScale="1" pageWidth="4681" pageHeight="3300" math="0" shadow="0">
      <root>
        <mxCell id="0" />
        <mxCell id="1" parent="0" />
        <mxCell id="yr03mUkh0l-cAhAUMMdQ-56" style="edgeStyle=orthogonalEdgeStyle;rounded=0;orthogonalLoop=1;jettySize=auto;html=1;entryX=0;entryY=0.5;entryDx=0;entryDy=0;" edge="1" parent="1" source="yr03mUkh0l-cAhAUMMdQ-1" target="yr03mUkh0l-cAhAUMMdQ-5">
          <mxGeometry relative="1" as="geometry" />
        </mxCell>
        <mxCell id="yr03mUkh0l-cAhAUMMdQ-74" style="edgeStyle=orthogonalEdgeStyle;rounded=0;orthogonalLoop=1;jettySize=auto;html=1;exitX=0;exitY=0.5;exitDx=0;exitDy=0;" edge="1" parent="1" source="yr03mUkh0l-cAhAUMMdQ-1">
          <mxGeometry relative="1" as="geometry">
            <mxPoint x="180" y="60" as="targetPoint" />
          </mxGeometry>
        </mxCell>
        <mxCell id="yr03mUkh0l-cAhAUMMdQ-1" value="University" style="swimlane;startSize=23;" vertex="1" parent="1">
          <mxGeometry x="450" y="-40" width="200" height="200" as="geometry" />
        </mxCell>
        <mxCell id="yr03mUkh0l-cAhAUMMdQ-121" style="edgeStyle=orthogonalEdgeStyle;rounded=0;orthogonalLoop=1;jettySize=auto;html=1;exitX=0;exitY=0.5;exitDx=0;exitDy=0;entryX=1;entryY=0.5;entryDx=0;entryDy=0;" edge="1" parent="1" source="yr03mUkh0l-cAhAUMMdQ-5" target="yr03mUkh0l-cAhAUMMdQ-120">
          <mxGeometry relative="1" as="geometry">
            <Array as="points">
              <mxPoint x="860" y="60" />
              <mxPoint x="860" y="425" />
            </Array>
          </mxGeometry>
        </mxCell>
        <mxCell id="yr03mUkh0l-cAhAUMMdQ-5" value="degree" style="swimlane;" vertex="1" parent="1">
          <mxGeometry x="1100" y="-40" width="200" height="200" as="geometry" />
        </mxCell>
        <mxCell id="yr03mUkh0l-cAhAUMMdQ-18" value="PhD" style="text;html=1;align=center;verticalAlign=middle;resizable=0;points=[];autosize=1;strokeColor=none;fillColor=none;" vertex="1" parent="yr03mUkh0l-cAhAUMMdQ-5">
          <mxGeometry x="10" y="50" width="40" height="20" as="geometry" />
        </mxCell>
        <mxCell id="yr03mUkh0l-cAhAUMMdQ-19" value="Master" style="text;html=1;align=center;verticalAlign=middle;resizable=0;points=[];autosize=1;strokeColor=none;fillColor=none;" vertex="1" parent="yr03mUkh0l-cAhAUMMdQ-5">
          <mxGeometry x="10" y="80" width="50" height="20" as="geometry" />
        </mxCell>
        <mxCell id="yr03mUkh0l-cAhAUMMdQ-20" value="Bachelor" style="text;html=1;align=center;verticalAlign=middle;resizable=0;points=[];autosize=1;strokeColor=none;fillColor=none;" vertex="1" parent="yr03mUkh0l-cAhAUMMdQ-5">
          <mxGeometry x="10" y="110" width="60" height="20" as="geometry" />
        </mxCell>
        <mxCell id="yr03mUkh0l-cAhAUMMdQ-22" value="Diploma" style="text;html=1;align=center;verticalAlign=middle;resizable=0;points=[];autosize=1;strokeColor=none;fillColor=none;" vertex="1" parent="yr03mUkh0l-cAhAUMMdQ-5">
          <mxGeometry x="10" y="140" width="60" height="20" as="geometry" />
        </mxCell>
        <mxCell id="yr03mUkh0l-cAhAUMMdQ-112" style="edgeStyle=orthogonalEdgeStyle;rounded=0;orthogonalLoop=1;jettySize=auto;html=1;exitX=0.5;exitY=0;exitDx=0;exitDy=0;" edge="1" parent="1" source="yr03mUkh0l-cAhAUMMdQ-26">
          <mxGeometry relative="1" as="geometry">
            <mxPoint x="1200" y="480" as="targetPoint" />
          </mxGeometry>
        </mxCell>
        <mxCell id="yr03mUkh0l-cAhAUMMdQ-26" value="masterCourse" style="swimlane;" vertex="1" parent="1">
          <mxGeometry x="1310" y="680" width="200" height="200" as="geometry" />
        </mxCell>
        <mxCell id="yr03mUkh0l-cAhAUMMdQ-38" value="name" style="text;html=1;align=center;verticalAlign=middle;resizable=0;points=[];autosize=1;strokeColor=none;fillColor=none;" vertex="1" parent="yr03mUkh0l-cAhAUMMdQ-26">
          <mxGeometry x="20" y="100" width="50" height="20" as="geometry" />
        </mxCell>
        <mxCell id="yr03mUkh0l-cAhAUMMdQ-39" value="Unicode" style="text;html=1;align=center;verticalAlign=middle;resizable=0;points=[];autosize=1;strokeColor=none;fillColor=none;" vertex="1" parent="yr03mUkh0l-cAhAUMMdQ-26">
          <mxGeometry x="25" y="60" width="60" height="20" as="geometry" />
        </mxCell>
        <mxCell id="yr03mUkh0l-cAhAUMMdQ-37" value="description" style="text;html=1;align=center;verticalAlign=middle;resizable=0;points=[];autosize=1;strokeColor=none;fillColor=none;" vertex="1" parent="yr03mUkh0l-cAhAUMMdQ-26">
          <mxGeometry x="25" y="140" width="70" height="20" as="geometry" />
        </mxCell>
        <mxCell id="yr03mUkh0l-cAhAUMMdQ-111" style="edgeStyle=orthogonalEdgeStyle;rounded=0;orthogonalLoop=1;jettySize=auto;html=1;" edge="1" parent="1" source="yr03mUkh0l-cAhAUMMdQ-27">
          <mxGeometry relative="1" as="geometry">
            <mxPoint x="1200" y="480" as="targetPoint" />
          </mxGeometry>
        </mxCell>
        <mxCell id="yr03mUkh0l-cAhAUMMdQ-27" value="PhDCourse" style="swimlane;" vertex="1" parent="1">
          <mxGeometry x="1050" y="680" width="200" height="200" as="geometry" />
        </mxCell>
        <mxCell id="yr03mUkh0l-cAhAUMMdQ-82" value="description" style="text;html=1;align=center;verticalAlign=middle;resizable=0;points=[];autosize=1;strokeColor=none;fillColor=none;" vertex="1" parent="yr03mUkh0l-cAhAUMMdQ-27">
          <mxGeometry x="20" y="110" width="70" height="20" as="geometry" />
        </mxCell>
        <mxCell id="yr03mUkh0l-cAhAUMMdQ-83" value="name" style="text;html=1;align=center;verticalAlign=middle;resizable=0;points=[];autosize=1;strokeColor=none;fillColor=none;" vertex="1" parent="yr03mUkh0l-cAhAUMMdQ-27">
          <mxGeometry x="20" y="80" width="50" height="20" as="geometry" />
        </mxCell>
        <mxCell id="yr03mUkh0l-cAhAUMMdQ-84" value="Unicode" style="text;html=1;align=center;verticalAlign=middle;resizable=0;points=[];autosize=1;strokeColor=none;fillColor=none;" vertex="1" parent="yr03mUkh0l-cAhAUMMdQ-27">
          <mxGeometry x="20" y="40" width="60" height="20" as="geometry" />
        </mxCell>
        <mxCell id="yr03mUkh0l-cAhAUMMdQ-113" style="edgeStyle=orthogonalEdgeStyle;rounded=0;orthogonalLoop=1;jettySize=auto;html=1;exitX=0.5;exitY=0;exitDx=0;exitDy=0;" edge="1" parent="1" source="yr03mUkh0l-cAhAUMMdQ-28">
          <mxGeometry relative="1" as="geometry">
            <mxPoint x="1200" y="480" as="targetPoint" />
          </mxGeometry>
        </mxCell>
        <mxCell id="yr03mUkh0l-cAhAUMMdQ-28" value="bachelorCourse" style="swimlane;" vertex="1" parent="1">
          <mxGeometry x="1590" y="680" width="200" height="200" as="geometry" />
        </mxCell>
        <mxCell id="yr03mUkh0l-cAhAUMMdQ-40" value="description" style="text;html=1;align=center;verticalAlign=middle;resizable=0;points=[];autosize=1;strokeColor=none;fillColor=none;" vertex="1" parent="yr03mUkh0l-cAhAUMMdQ-28">
          <mxGeometry x="30" y="130" width="70" height="20" as="geometry" />
        </mxCell>
        <mxCell id="yr03mUkh0l-cAhAUMMdQ-41" value="name" style="text;html=1;align=center;verticalAlign=middle;resizable=0;points=[];autosize=1;strokeColor=none;fillColor=none;" vertex="1" parent="yr03mUkh0l-cAhAUMMdQ-28">
          <mxGeometry x="30" y="100" width="50" height="20" as="geometry" />
        </mxCell>
        <mxCell id="yr03mUkh0l-cAhAUMMdQ-42" value="Unicode" style="text;html=1;align=center;verticalAlign=middle;resizable=0;points=[];autosize=1;strokeColor=none;fillColor=none;" vertex="1" parent="yr03mUkh0l-cAhAUMMdQ-28">
          <mxGeometry x="35" y="60" width="60" height="20" as="geometry" />
        </mxCell>
        <mxCell id="yr03mUkh0l-cAhAUMMdQ-132" style="edgeStyle=orthogonalEdgeStyle;rounded=0;orthogonalLoop=1;jettySize=auto;html=1;exitX=0.5;exitY=0;exitDx=0;exitDy=0;entryX=0.5;entryY=1;entryDx=0;entryDy=0;" edge="1" parent="1" source="yr03mUkh0l-cAhAUMMdQ-29" target="yr03mUkh0l-cAhAUMMdQ-97">
          <mxGeometry relative="1" as="geometry" />
        </mxCell>
        <mxCell id="yr03mUkh0l-cAhAUMMdQ-29" value="diplomaCourse" style="swimlane;" vertex="1" parent="1">
          <mxGeometry x="1860" y="680" width="200" height="200" as="geometry" />
        </mxCell>
        <mxCell id="yr03mUkh0l-cAhAUMMdQ-46" value="description" style="text;html=1;align=center;verticalAlign=middle;resizable=0;points=[];autosize=1;strokeColor=none;fillColor=none;" vertex="1" parent="yr03mUkh0l-cAhAUMMdQ-29">
          <mxGeometry x="30" y="130" width="70" height="20" as="geometry" />
        </mxCell>
        <mxCell id="yr03mUkh0l-cAhAUMMdQ-47" value="name" style="text;html=1;align=center;verticalAlign=middle;resizable=0;points=[];autosize=1;strokeColor=none;fillColor=none;" vertex="1" parent="yr03mUkh0l-cAhAUMMdQ-29">
          <mxGeometry x="30" y="100" width="50" height="20" as="geometry" />
        </mxCell>
        <mxCell id="yr03mUkh0l-cAhAUMMdQ-48" value="Unicode" style="text;html=1;align=center;verticalAlign=middle;resizable=0;points=[];autosize=1;strokeColor=none;fillColor=none;" vertex="1" parent="yr03mUkh0l-cAhAUMMdQ-29">
          <mxGeometry x="35" y="60" width="60" height="20" as="geometry" />
        </mxCell>
        <mxCell id="yr03mUkh0l-cAhAUMMdQ-73" style="edgeStyle=orthogonalEdgeStyle;rounded=0;orthogonalLoop=1;jettySize=auto;html=1;exitX=1;exitY=0.5;exitDx=0;exitDy=0;entryX=0;entryY=0.5;entryDx=0;entryDy=0;" edge="1" parent="1" source="yr03mUkh0l-cAhAUMMdQ-54">
          <mxGeometry relative="1" as="geometry">
            <mxPoint x="-20" y="60" as="targetPoint" />
          </mxGeometry>
        </mxCell>
        <mxCell id="yr03mUkh0l-cAhAUMMdQ-54" value="Student" style="swimlane;" vertex="1" parent="1">
          <mxGeometry x="-540" y="-60" width="260" height="240" as="geometry" />
        </mxCell>
        <mxCell id="yr03mUkh0l-cAhAUMMdQ-58" value="FirstName" style="text;html=1;align=center;verticalAlign=middle;resizable=0;points=[];autosize=1;strokeColor=none;fillColor=none;" vertex="1" parent="yr03mUkh0l-cAhAUMMdQ-54">
          <mxGeometry y="30" width="70" height="20" as="geometry" />
        </mxCell>
        <mxCell id="yr03mUkh0l-cAhAUMMdQ-59" value="Surname" style="text;html=1;align=center;verticalAlign=middle;resizable=0;points=[];autosize=1;strokeColor=none;fillColor=none;" vertex="1" parent="yr03mUkh0l-cAhAUMMdQ-54">
          <mxGeometry x="10" y="50" width="60" height="20" as="geometry" />
        </mxCell>
        <mxCell id="yr03mUkh0l-cAhAUMMdQ-60" value="PreferredGivenName" style="text;html=1;align=center;verticalAlign=middle;resizable=0;points=[];autosize=1;strokeColor=none;fillColor=none;" vertex="1" parent="yr03mUkh0l-cAhAUMMdQ-54">
          <mxGeometry x="10" y="80" width="130" height="20" as="geometry" />
        </mxCell>
        <mxCell id="yr03mUkh0l-cAhAUMMdQ-61" value="DoB" style="text;html=1;align=center;verticalAlign=middle;resizable=0;points=[];autosize=1;strokeColor=none;fillColor=none;" vertex="1" parent="yr03mUkh0l-cAhAUMMdQ-54">
          <mxGeometry x="20" y="110" width="40" height="20" as="geometry" />
        </mxCell>
        <mxCell id="yr03mUkh0l-cAhAUMMdQ-62" value="Email" style="text;html=1;align=center;verticalAlign=middle;resizable=0;points=[];autosize=1;strokeColor=none;fillColor=none;" vertex="1" parent="yr03mUkh0l-cAhAUMMdQ-54">
          <mxGeometry x="20" y="140" width="50" height="20" as="geometry" />
        </mxCell>
        <mxCell id="yr03mUkh0l-cAhAUMMdQ-63" value="gender" style="text;html=1;align=center;verticalAlign=middle;resizable=0;points=[];autosize=1;strokeColor=none;fillColor=none;" vertex="1" parent="yr03mUkh0l-cAhAUMMdQ-54">
          <mxGeometry x="20" y="160" width="50" height="20" as="geometry" />
        </mxCell>
        <mxCell id="yr03mUkh0l-cAhAUMMdQ-64" value="maillingAdress" style="text;html=1;align=center;verticalAlign=middle;resizable=0;points=[];autosize=1;strokeColor=none;fillColor=none;" vertex="1" parent="yr03mUkh0l-cAhAUMMdQ-54">
          <mxGeometry x="15" y="190" width="90" height="20" as="geometry" />
        </mxCell>
        <mxCell id="yr03mUkh0l-cAhAUMMdQ-67" value="numberPhone" style="text;html=1;align=center;verticalAlign=middle;resizable=0;points=[];autosize=1;strokeColor=none;fillColor=none;" vertex="1" parent="yr03mUkh0l-cAhAUMMdQ-54">
          <mxGeometry x="10" y="210" width="90" height="20" as="geometry" />
        </mxCell>
        <mxCell id="yr03mUkh0l-cAhAUMMdQ-80" style="edgeStyle=orthogonalEdgeStyle;rounded=0;orthogonalLoop=1;jettySize=auto;html=1;exitX=0.5;exitY=1;exitDx=0;exitDy=0;entryX=0.5;entryY=0;entryDx=0;entryDy=0;" edge="1" parent="1" source="yr03mUkh0l-cAhAUMMdQ-79">
          <mxGeometry relative="1" as="geometry">
            <mxPoint x="80" y="270" as="targetPoint" />
          </mxGeometry>
        </mxCell>
        <mxCell id="yr03mUkh0l-cAhAUMMdQ-79" value="Relationship" style="rhombus;whiteSpace=wrap;html=1;" vertex="1" parent="1">
          <mxGeometry x="-20" y="-15" width="200" height="150" as="geometry" />
        </mxCell>
        <mxCell id="yr03mUkh0l-cAhAUMMdQ-103" style="edgeStyle=orthogonalEdgeStyle;rounded=0;orthogonalLoop=1;jettySize=auto;html=1;exitX=0.5;exitY=1;exitDx=0;exitDy=0;entryX=0.5;entryY=0;entryDx=0;entryDy=0;" edge="1" parent="1" source="yr03mUkh0l-cAhAUMMdQ-89" target="yr03mUkh0l-cAhAUMMdQ-92">
          <mxGeometry relative="1" as="geometry" />
        </mxCell>
        <mxCell id="yr03mUkh0l-cAhAUMMdQ-89" value="requirement" style="swimlane;" vertex="1" parent="1">
          <mxGeometry x="-20" y="270" width="200" height="160" as="geometry" />
        </mxCell>
        <mxCell id="yr03mUkh0l-cAhAUMMdQ-91" value="- requirements" style="text;html=1;align=center;verticalAlign=middle;resizable=0;points=[];autosize=1;strokeColor=none;fillColor=none;" vertex="1" parent="yr03mUkh0l-cAhAUMMdQ-89">
          <mxGeometry x="20" y="50" width="90" height="20" as="geometry" />
        </mxCell>
        <mxCell id="yr03mUkh0l-cAhAUMMdQ-128" style="edgeStyle=orthogonalEdgeStyle;rounded=0;orthogonalLoop=1;jettySize=auto;html=1;exitX=0.5;exitY=1;exitDx=0;exitDy=0;" edge="1" parent="1" source="yr03mUkh0l-cAhAUMMdQ-92" target="yr03mUkh0l-cAhAUMMdQ-129">
          <mxGeometry relative="1" as="geometry">
            <mxPoint x="-120" y="770" as="targetPoint" />
          </mxGeometry>
        </mxCell>
        <mxCell id="yr03mUkh0l-cAhAUMMdQ-131" style="edgeStyle=orthogonalEdgeStyle;rounded=0;orthogonalLoop=1;jettySize=auto;html=1;entryX=0.5;entryY=0;entryDx=0;entryDy=0;" edge="1" parent="1" source="yr03mUkh0l-cAhAUMMdQ-92" target="yr03mUkh0l-cAhAUMMdQ-130">
          <mxGeometry relative="1" as="geometry" />
        </mxCell>
        <mxCell id="yr03mUkh0l-cAhAUMMdQ-92" value="OfficeLetter" style="swimlane;fontStyle=0" vertex="1" parent="1">
          <mxGeometry x="-20" y="480" width="200" height="200" as="geometry" />
        </mxCell>
        <mxCell id="yr03mUkh0l-cAhAUMMdQ-93" value="uniqueNo" style="text;html=1;align=center;verticalAlign=middle;resizable=0;points=[];autosize=1;strokeColor=none;fillColor=none;" vertex="1" parent="yr03mUkh0l-cAhAUMMdQ-92">
          <mxGeometry x="10" y="40" width="70" height="20" as="geometry" />
        </mxCell>
        <mxCell id="yr03mUkh0l-cAhAUMMdQ-104" style="edgeStyle=orthogonalEdgeStyle;rounded=0;orthogonalLoop=1;jettySize=auto;html=1;entryX=0.5;entryY=1;entryDx=0;entryDy=0;" edge="1" parent="1" source="yr03mUkh0l-cAhAUMMdQ-97" target="yr03mUkh0l-cAhAUMMdQ-5">
          <mxGeometry relative="1" as="geometry" />
        </mxCell>
        <mxCell id="yr03mUkh0l-cAhAUMMdQ-122" style="edgeStyle=orthogonalEdgeStyle;rounded=0;orthogonalLoop=1;jettySize=auto;html=1;entryX=1;entryY=0.5;entryDx=0;entryDy=0;" edge="1" parent="1" source="yr03mUkh0l-cAhAUMMdQ-97" target="yr03mUkh0l-cAhAUMMdQ-120">
          <mxGeometry relative="1" as="geometry">
            <Array as="points">
              <mxPoint x="1080" y="380" />
              <mxPoint x="1080" y="425" />
            </Array>
          </mxGeometry>
        </mxCell>
        <mxCell id="yr03mUkh0l-cAhAUMMdQ-140" style="edgeStyle=orthogonalEdgeStyle;rounded=0;orthogonalLoop=1;jettySize=auto;html=1;exitX=1;exitY=0.5;exitDx=0;exitDy=0;entryX=0;entryY=0.5;entryDx=0;entryDy=0;" edge="1" parent="1" source="yr03mUkh0l-cAhAUMMdQ-97" target="yr03mUkh0l-cAhAUMMdQ-134">
          <mxGeometry relative="1" as="geometry" />
        </mxCell>
        <mxCell id="yr03mUkh0l-cAhAUMMdQ-97" value="Course" style="swimlane;" vertex="1" parent="1">
          <mxGeometry x="1100" y="280" width="200" height="200" as="geometry" />
        </mxCell>
        <mxCell id="yr03mUkh0l-cAhAUMMdQ-118" value="courseStartDate" style="text;html=1;align=center;verticalAlign=middle;resizable=0;points=[];autosize=1;strokeColor=none;fillColor=none;" vertex="1" parent="yr03mUkh0l-cAhAUMMdQ-97">
          <mxGeometry x="10" y="40" width="100" height="20" as="geometry" />
        </mxCell>
        <mxCell id="yr03mUkh0l-cAhAUMMdQ-119" value="courseEndDate" style="text;html=1;align=center;verticalAlign=middle;resizable=0;points=[];autosize=1;strokeColor=none;fillColor=none;" vertex="1" parent="yr03mUkh0l-cAhAUMMdQ-97">
          <mxGeometry x="10" y="70" width="100" height="20" as="geometry" />
        </mxCell>
        <mxCell id="yr03mUkh0l-cAhAUMMdQ-126" value="courseFee" style="text;html=1;align=center;verticalAlign=middle;resizable=0;points=[];autosize=1;strokeColor=none;fillColor=none;" vertex="1" parent="yr03mUkh0l-cAhAUMMdQ-97">
          <mxGeometry x="20" y="100" width="70" height="20" as="geometry" />
        </mxCell>
        <mxCell id="yr03mUkh0l-cAhAUMMdQ-107" value="*.1" style="text;html=1;align=center;verticalAlign=middle;resizable=0;points=[];autosize=1;strokeColor=none;fillColor=none;" vertex="1" parent="1">
          <mxGeometry x="-270" y="30" width="30" height="20" as="geometry" />
        </mxCell>
        <mxCell id="yr03mUkh0l-cAhAUMMdQ-108" value="*.1" style="text;html=1;align=center;verticalAlign=middle;resizable=0;points=[];autosize=1;strokeColor=none;fillColor=none;" vertex="1" parent="1">
          <mxGeometry x="415" y="40" width="30" height="20" as="geometry" />
        </mxCell>
        <mxCell id="yr03mUkh0l-cAhAUMMdQ-109" value="1.*" style="text;html=1;align=center;verticalAlign=middle;resizable=0;points=[];autosize=1;strokeColor=none;fillColor=none;" vertex="1" parent="1">
          <mxGeometry x="650" y="40" width="30" height="20" as="geometry" />
        </mxCell>
        <mxCell id="yr03mUkh0l-cAhAUMMdQ-110" value="1.*" style="text;html=1;align=center;verticalAlign=middle;resizable=0;points=[];autosize=1;strokeColor=none;fillColor=none;" vertex="1" parent="1">
          <mxGeometry x="1205" y="160" width="30" height="20" as="geometry" />
        </mxCell>
        <mxCell id="yr03mUkh0l-cAhAUMMdQ-116" value="1.*" style="text;html=1;align=center;verticalAlign=middle;resizable=0;points=[];autosize=1;strokeColor=none;fillColor=none;" vertex="1" parent="1">
          <mxGeometry x="1060" y="360" width="30" height="20" as="geometry" />
        </mxCell>
        <mxCell id="yr03mUkh0l-cAhAUMMdQ-117" value="1.1" style="text;html=1;align=center;verticalAlign=middle;resizable=0;points=[];autosize=1;strokeColor=none;fillColor=none;" vertex="1" parent="1">
          <mxGeometry x="880" y="90" width="30" height="20" as="geometry" />
        </mxCell>
        <mxCell id="yr03mUkh0l-cAhAUMMdQ-124" style="edgeStyle=orthogonalEdgeStyle;rounded=0;orthogonalLoop=1;jettySize=auto;html=1;exitX=0.5;exitY=1;exitDx=0;exitDy=0;entryX=1;entryY=0.5;entryDx=0;entryDy=0;" edge="1" parent="1" source="yr03mUkh0l-cAhAUMMdQ-120" target="yr03mUkh0l-cAhAUMMdQ-92">
          <mxGeometry relative="1" as="geometry" />
        </mxCell>
        <mxCell id="yr03mUkh0l-cAhAUMMdQ-120" value="uniqueStudentID" style="rhombus;whiteSpace=wrap;html=1;" vertex="1" parent="1">
          <mxGeometry x="470" y="370" width="125" height="110" as="geometry" />
        </mxCell>
        <mxCell id="yr03mUkh0l-cAhAUMMdQ-129" value="Accept" style="swimlane;" vertex="1" parent="1">
          <mxGeometry x="-220" y="800" width="200" height="200" as="geometry" />
        </mxCell>
        <mxCell id="yr03mUkh0l-cAhAUMMdQ-130" value="Reject" style="swimlane;" vertex="1" parent="1">
          <mxGeometry x="160" y="800" width="200" height="200" as="geometry" />
        </mxCell>
        <mxCell id="yr03mUkh0l-cAhAUMMdQ-154" style="edgeStyle=orthogonalEdgeStyle;rounded=0;orthogonalLoop=1;jettySize=auto;html=1;exitX=1;exitY=0.5;exitDx=0;exitDy=0;entryX=0;entryY=0.5;entryDx=0;entryDy=0;" edge="1" parent="1" source="yr03mUkh0l-cAhAUMMdQ-134" target="yr03mUkh0l-cAhAUMMdQ-141">
          <mxGeometry relative="1" as="geometry" />
        </mxCell>
        <mxCell id="yr03mUkh0l-cAhAUMMdQ-134" value="Unit" style="swimlane;" vertex="1" parent="1">
          <mxGeometry x="1460" y="280" width="200" height="200" as="geometry" />
        </mxCell>
        <mxCell id="yr03mUkh0l-cAhAUMMdQ-135" value="unitCode&lt;span style=&quot;white-space: pre&quot;&gt;	&lt;/span&gt;" style="text;html=1;align=center;verticalAlign=middle;resizable=0;points=[];autosize=1;strokeColor=none;fillColor=none;" vertex="1" parent="yr03mUkh0l-cAhAUMMdQ-134">
          <mxGeometry x="30" y="40" width="70" height="20" as="geometry" />
        </mxCell>
        <mxCell id="yr03mUkh0l-cAhAUMMdQ-136" value="unitDescription" style="text;html=1;align=center;verticalAlign=middle;resizable=0;points=[];autosize=1;strokeColor=none;fillColor=none;" vertex="1" parent="yr03mUkh0l-cAhAUMMdQ-134">
          <mxGeometry x="30" y="70" width="90" height="20" as="geometry" />
        </mxCell>
        <mxCell id="yr03mUkh0l-cAhAUMMdQ-137" value="unitCreditPoints" style="text;html=1;align=center;verticalAlign=middle;resizable=0;points=[];autosize=1;strokeColor=none;fillColor=none;" vertex="1" parent="yr03mUkh0l-cAhAUMMdQ-134">
          <mxGeometry x="25" y="110" width="100" height="20" as="geometry" />
        </mxCell>
        <mxCell id="yr03mUkh0l-cAhAUMMdQ-141" value="Trimester" style="swimlane;" vertex="1" parent="1">
          <mxGeometry x="1800" y="280" width="200" height="200" as="geometry" />
        </mxCell>
        <mxCell id="yr03mUkh0l-cAhAUMMdQ-142" value="startDate" style="text;html=1;align=center;verticalAlign=middle;resizable=0;points=[];autosize=1;strokeColor=none;fillColor=none;" vertex="1" parent="yr03mUkh0l-cAhAUMMdQ-141">
          <mxGeometry x="30" y="40" width="60" height="20" as="geometry" />
        </mxCell>
        <mxCell id="yr03mUkh0l-cAhAUMMdQ-143" value="endDate" style="text;html=1;align=center;verticalAlign=middle;resizable=0;points=[];autosize=1;strokeColor=none;fillColor=none;" vertex="1" parent="yr03mUkh0l-cAhAUMMdQ-141">
          <mxGeometry x="30" y="70" width="60" height="20" as="geometry" />
        </mxCell>
        <mxCell id="yr03mUkh0l-cAhAUMMdQ-144" value="orientationDay&#39;sdate" style="text;html=1;align=center;verticalAlign=middle;resizable=0;points=[];autosize=1;strokeColor=none;fillColor=none;" vertex="1" parent="yr03mUkh0l-cAhAUMMdQ-141">
          <mxGeometry x="30" y="100" width="120" height="20" as="geometry" />
        </mxCell>
        <mxCell id="yr03mUkh0l-cAhAUMMdQ-145" value="censusday&#39;sdate" style="text;html=1;align=center;verticalAlign=middle;resizable=0;points=[];autosize=1;strokeColor=none;fillColor=none;" vertex="1" parent="yr03mUkh0l-cAhAUMMdQ-141">
          <mxGeometry x="30" y="130" width="100" height="20" as="geometry" />
        </mxCell>
        <mxCell id="yr03mUkh0l-cAhAUMMdQ-153" style="edgeStyle=orthogonalEdgeStyle;rounded=0;orthogonalLoop=1;jettySize=auto;html=1;exitX=0;exitY=0.5;exitDx=0;exitDy=0;entryX=1;entryY=0.5;entryDx=0;entryDy=0;" edge="1" parent="1" source="yr03mUkh0l-cAhAUMMdQ-146" target="yr03mUkh0l-cAhAUMMdQ-141">
          <mxGeometry relative="1" as="geometry" />
        </mxCell>
        <mxCell id="yr03mUkh0l-cAhAUMMdQ-146" value="FreeClass" style="swimlane;" vertex="1" parent="1">
          <mxGeometry x="2110" y="540" width="200" height="200" as="geometry" />
        </mxCell>
        <mxCell id="yr03mUkh0l-cAhAUMMdQ-148" value="endDate" style="text;html=1;align=center;verticalAlign=middle;resizable=0;points=[];autosize=1;strokeColor=none;fillColor=none;" vertex="1" parent="yr03mUkh0l-cAhAUMMdQ-146">
          <mxGeometry x="40" y="70" width="60" height="20" as="geometry" />
        </mxCell>
        <mxCell id="yr03mUkh0l-cAhAUMMdQ-147" value="startDate" style="text;html=1;align=center;verticalAlign=middle;resizable=0;points=[];autosize=1;strokeColor=none;fillColor=none;" vertex="1" parent="yr03mUkh0l-cAhAUMMdQ-146">
          <mxGeometry x="40" y="90" width="60" height="20" as="geometry" />
        </mxCell>
        <mxCell id="yr03mUkh0l-cAhAUMMdQ-149" value="Submit" style="shape=singleArrow;whiteSpace=wrap;html=1;arrowWidth=0.4;arrowSize=0.4;" vertex="1" parent="1">
          <mxGeometry x="-170" y="-10" width="80" height="60" as="geometry" />
        </mxCell>
        <mxCell id="yr03mUkh0l-cAhAUMMdQ-150" value="Response" style="shape=singleArrow;whiteSpace=wrap;html=1;arrowWidth=0.4;arrowSize=0.4;direction=west;" vertex="1" parent="1">
          <mxGeometry x="290" y="-10" width="80" height="60" as="geometry" />
        </mxCell>
      </root>
    </mxGraphModel>
  </diagram>
</mxfile>
